<svg width="55" height="63" viewBox="0 0 55 63" fill="none" xmlns="http://www.w3.org/2000/svg">
<g filter="url(#filter0_dd_7_38)">
<path d="M50.8968 10.0469L50.6107 7L47.7503 7.96725C42.8479 9.69512 37.6129 10.2254 32.4706 9.51486C27.0671 8.66419 21.5363 9.42011 16.5474 11.6912C13.9026 12.8336 11.5815 14.629 9.79548 16.9139C8.00941 19.1988 6.8151 21.9006 6.32127 24.7733C5.68095 28.4844 6.00128 32.3005 7.25092 35.8484C8.05555 34.006 8.99581 32.2276 10.0637 30.5285C12.486 26.913 15.8425 24.0435 19.7654 22.2343C23.5447 20.4838 27.6755 19.6557 31.827 19.8161C27.8749 20.4291 24.0919 21.8703 20.7189 24.0479C19.092 25.0849 17.602 26.3282 16.2852 27.7476C15.0258 29.1664 13.9154 30.7143 12.9718 32.3662C11.1996 35.8194 9.9386 39.5185 9.2294 43.3446C8.46498 47.183 8.05005 51.0845 7.98987 55H12.7573C12.9814 51.4885 13.4514 47.9975 14.1637 44.5537C17.4709 46.3653 21.1798 47.2893 24.9381 47.2378C28.4433 47.2353 31.9124 46.52 35.1404 45.134C53.2805 37.2751 50.8968 11.135 50.8968 10.0469Z" fill="#0A8000"/>
</g>
<defs>
<filter id="filter0_dd_7_38" x="0" y="0" width="55" height="63" filterUnits="userSpaceOnUse" color-interpolation-filters="sRGB">
<feFlood flood-opacity="0" result="BackgroundImageFix"/>
<feColorMatrix in="SourceAlpha" type="matrix" values="0 0 0 0 0 0 0 0 0 0 0 0 0 0 0 0 0 0 127 0" result="hardAlpha"/>
<feOffset dy="4"/>
<feGaussianBlur stdDeviation="2"/>
<feComposite in2="hardAlpha" operator="out"/>
<feColorMatrix type="matrix" values="0 0 0 0 0 0 0 0 0 0 0 0 0 0 0 0 0 0 0.25 0"/>
<feBlend mode="normal" in2="BackgroundImageFix" result="effect1_dropShadow_7_38"/>
<feColorMatrix in="SourceAlpha" type="matrix" values="0 0 0 0 0 0 0 0 0 0 0 0 0 0 0 0 0 0 127 0" result="hardAlpha"/>
<feOffset dx="-2" dy="-3"/>
<feGaussianBlur stdDeviation="2"/>
<feComposite in2="hardAlpha" operator="out"/>
<feColorMatrix type="matrix" values="0 0 0 0 0.0400667 0 0 0 0 0.500833 0 0 0 0 0 0 0 0 0.32 0"/>
<feBlend mode="normal" in2="effect1_dropShadow_7_38" result="effect2_dropShadow_7_38"/>
<feBlend mode="normal" in="SourceGraphic" in2="effect2_dropShadow_7_38" result="shape"/>
</filter>
</defs>
</svg>
