<svg width="140" height="37" viewBox="0 0 140 37" fill="none" xmlns="http://www.w3.org/2000/svg">
<path d="M27.9462 2.35757C18.9775 9.99344 14.0765 22.4716 12.7338 29.8193H17.4091C19.3222 22.4026 20.5052 13.8656 27.9463 2.35751L27.9462 2.35757ZM4.74536 5.53241C7.91784 9.33451 10.9399 13.5518 13.3487 17.5982C13.7816 18.3255 14.2017 19.0604 14.6087 19.8026C15.0959 18.6091 15.6229 17.4321 16.1887 16.2738C13.0513 11.961 9.31877 8.09966 4.7453 5.53247L4.74536 5.53241ZM28.4306 13.6287C25.3071 16.444 23.6561 20.5585 22.9454 25.1723C23.7794 26.7365 24.5622 28.2781 25.3028 29.7663H27.6869C26.1581 25.4396 26.9883 19.9359 28.4306 13.6287ZM4.05664 14.5577C8.47426 18.9934 11.3703 25.9768 8.90608 29.7417H11.6307C11.9028 28.2207 12.3173 26.4943 12.8832 24.6406C11.7666 19.5373 7.95707 14.7085 4.05664 14.5579V14.5577ZM2.06616 19.882C5.27636 24.7824 5.80221 27.4483 4.54483 29.7267H8.63174C7.83858 25.3661 6.72791 22.6848 2.06616 19.8821V19.882ZM20.287 22.6426C19.6422 25.1468 19.1252 27.5128 18.5425 29.8023H24.0958C22.9367 27.4842 21.6789 25.0559 20.287 22.6426Z" fill="white"/>
<path d="M55.2852 9.79297C55.9232 9.79297 56.4974 9.90234 57.0078 10.1211C57.5365 10.3216 58.0195 10.5495 58.457 10.8047C58.9128 11.0599 59.3411 11.2969 59.7422 11.5156C60.1432 11.7161 60.5534 11.8164 60.9727 11.8164C61.3008 11.7982 61.6745 11.7526 62.0938 11.6797C62.4583 11.6068 62.8776 11.4974 63.3516 11.3516C63.8438 11.1875 64.3906 10.9505 64.9922 10.6406C64.3906 11.224 63.8984 11.7161 63.5156 12.1172C63.151 12.5 62.8685 12.819 62.668 13.0742C62.431 13.3659 62.2578 13.5938 62.1484 13.7578C62.0391 13.9583 61.875 14.2591 61.6562 14.6602C61.4557 15.0247 61.1823 15.5169 60.8359 16.1367C60.4896 16.7383 60.0521 17.5312 59.5234 18.5156C59.5234 17.2578 59.3958 16.2826 59.1406 15.5898C58.9036 14.8971 58.6393 14.3685 58.3477 14.0039C58.0013 13.5846 57.6094 13.3203 57.1719 13.2109C56.7708 13.1562 56.3698 13.2292 55.9688 13.4297C55.5677 13.612 55.1667 13.8854 54.7656 14.25C54.3828 14.6146 54.0091 15.0521 53.6445 15.5625C53.2982 16.0547 52.9792 16.5742 52.6875 17.1211C52.4141 17.668 52.1862 18.224 52.0039 18.7891C51.8216 19.3359 51.7031 19.8464 51.6484 20.3203C51.5938 20.7396 51.5846 21.2318 51.6211 21.7969C51.6576 22.3438 51.7396 22.9089 51.8672 23.4922C51.9948 24.0573 52.1589 24.6133 52.3594 25.1602C52.5599 25.707 52.806 26.1992 53.0977 26.6367C53.4076 27.056 53.7539 27.4023 54.1367 27.6758C54.5195 27.931 54.957 28.0495 55.4492 28.0312C55.9961 27.9948 56.5339 27.8307 57.0625 27.5391C57.5182 27.3021 57.9831 26.9375 58.457 26.4453C58.931 25.9349 59.3411 25.2148 59.6875 24.2852L63.7344 25.0234C62.5677 26.4453 61.4284 27.5117 60.3164 28.2227C59.2227 28.9336 58.2383 29.4349 57.3633 29.7266C56.3424 30.0547 55.3763 30.2096 54.4648 30.1914C53.3164 30.0638 52.2409 29.7174 51.2383 29.1523C50.2357 28.5872 49.3698 27.9036 48.6406 27.1016C47.9297 26.2812 47.3737 25.388 46.9727 24.4219C46.5716 23.4557 46.3984 22.5078 46.4531 21.5781C46.4896 20.9583 46.6172 20.2383 46.8359 19.418C47.0547 18.5794 47.3464 17.7227 47.7109 16.8477C48.0938 15.9727 48.5495 15.1159 49.0781 14.2773C49.6068 13.4388 50.1901 12.6914 50.8281 12.0352C51.4661 11.3607 52.1589 10.8229 52.9062 10.4219C53.6719 10.0026 54.4648 9.79297 55.2852 9.79297ZM63.7344 16.9023C64.0807 16.9206 64.3906 16.9297 64.6641 16.9297C64.9557 16.9115 65.2018 16.8932 65.4023 16.875C65.6393 16.8568 65.849 16.8385 66.0312 16.8203C66.3047 16.7839 66.5872 16.7383 66.8789 16.6836C67.1341 16.6471 67.3984 16.6016 67.6719 16.5469C67.9635 16.474 68.2461 16.3919 68.5195 16.3008C68.4102 16.5742 68.319 16.8112 68.2461 17.0117C68.1732 17.2122 68.1185 17.3854 68.082 17.5312C68.0273 17.6953 68 17.832 68 17.9414C67.9818 18.069 67.9727 18.224 67.9727 18.4062C67.9544 18.7161 67.9544 19.2174 67.9727 19.9102C68.9206 19.0898 69.7135 18.4518 70.3516 17.9961C71.0078 17.5404 71.5273 17.1849 71.9102 16.9297C72.3659 16.638 72.7214 16.4466 72.9766 16.3555C73.651 16.2461 74.2435 16.401 74.7539 16.8203C74.9727 17.0026 75.1823 17.2487 75.3828 17.5586C75.5833 17.8503 75.7565 18.2422 75.9023 18.7344C76.0482 19.2266 76.1576 19.819 76.2305 20.5117C76.3034 21.1862 76.3125 21.9974 76.2578 22.9453C75.875 22.9818 75.5286 23.0182 75.2188 23.0547C74.9271 23.0911 74.681 23.1185 74.4805 23.1367C74.2435 23.1732 74.0247 23.1914 73.8242 23.1914L73.0859 23.2734C72.8307 23.3099 72.5117 23.3464 72.1289 23.3828C71.7643 23.401 71.3177 23.4375 70.7891 23.4922C71.5547 22.8724 72.0469 22.3346 72.2656 21.8789C72.5026 21.4049 72.6029 21.013 72.5664 20.7031C72.5299 20.3568 72.3659 20.056 72.0742 19.8008C71.7279 19.6003 71.3542 19.5273 70.9531 19.582C70.6068 19.6185 70.2057 19.7734 69.75 20.0469C69.2943 20.3203 68.8112 20.8307 68.3008 21.5781C68.3372 22.7448 68.3737 23.7109 68.4102 24.4766C68.4648 25.2422 68.5104 25.862 68.5469 26.3359C68.6016 26.8828 68.6471 27.3112 68.6836 27.6211C68.7383 27.8945 68.8477 28.1862 69.0117 28.4961C69.1393 28.7513 69.3216 29.0339 69.5586 29.3438C69.7956 29.6536 70.1055 29.9635 70.4883 30.2734C69.6862 30.237 69.0299 30.237 68.5195 30.2734C68.2096 30.2917 67.9362 30.3099 67.6992 30.3281C67.444 30.3646 67.1706 30.401 66.8789 30.4375C66.6237 30.474 66.3229 30.5104 65.9766 30.5469C65.6484 30.6016 65.2839 30.6562 64.8828 30.7109C65.0286 30.5104 65.1471 30.2734 65.2383 30C65.3294 29.7448 65.4023 29.4987 65.457 29.2617C65.5299 28.9883 65.5846 28.7057 65.6211 28.4141C65.6393 28.1589 65.6484 27.776 65.6484 27.2656C65.6667 26.7552 65.6576 26.181 65.6211 25.543C65.6029 24.8867 65.5755 24.2122 65.5391 23.5195C65.5026 22.8086 65.457 22.1432 65.4023 21.5234C65.3477 20.9036 65.2839 20.3659 65.2109 19.9102C65.1562 19.4362 65.0924 19.1081 65.0195 18.9258C64.9284 18.707 64.819 18.4883 64.6914 18.2695C64.582 18.069 64.4453 17.8594 64.2812 17.6406C64.1172 17.4036 63.9349 17.1576 63.7344 16.9023ZM84.7344 17.75C85.2083 17.75 85.7005 17.8411 86.2109 18.0234C86.7214 18.1875 87.2135 18.4062 87.6875 18.6797C88.1615 18.9349 88.5898 19.2174 88.9727 19.5273C89.3737 19.819 89.7018 20.1016 89.957 20.375C90.4128 20.8672 90.7227 21.5326 90.8867 22.3711C91.069 23.1914 91.1055 24.0391 90.9961 24.9141C90.8867 25.7708 90.6315 26.582 90.2305 27.3477C89.8294 28.1133 89.2734 28.6784 88.5625 29.043C88.0521 29.2982 87.5508 29.4987 87.0586 29.6445C86.5664 29.7904 86.0924 29.8997 85.6367 29.9727C85.181 30.0456 84.7526 30.082 84.3516 30.082C83.9505 30.082 83.6042 30.0729 83.3125 30.0547C82.7656 30.0182 82.1914 29.8268 81.5898 29.4805C81.0065 29.1341 80.4505 28.7057 79.9219 28.1953C79.4115 27.6849 78.974 27.1289 78.6094 26.5273C78.2448 25.9076 78.026 25.3242 77.9531 24.7773C77.8438 24.0299 77.8255 23.2461 77.8984 22.4258C77.9714 21.6055 78.2357 20.849 78.6914 20.1562C79.1654 19.4635 79.8763 18.8893 80.8242 18.4336C81.7904 17.9779 83.0938 17.75 84.7344 17.75ZM83.832 28.3594C84.0326 28.3958 84.306 28.3503 84.6523 28.2227C84.9987 28.0768 85.3359 27.849 85.6641 27.5391C86.0104 27.2292 86.3112 26.8372 86.5664 26.3633C86.8398 25.8711 87.0039 25.2786 87.0586 24.5859C87.1133 23.9115 87.1133 23.2917 87.0586 22.7266C87.0221 22.1615 86.9401 21.6693 86.8125 21.25C86.6849 20.8125 86.5391 20.457 86.375 20.1836C86.2109 19.9102 86.0378 19.7188 85.8555 19.6094C85.5456 19.4453 85.1719 19.3177 84.7344 19.2266C84.2969 19.1172 83.9232 19.1354 83.6133 19.2812C83.4674 19.3542 83.2852 19.5091 83.0664 19.7461C82.8477 19.9831 82.6289 20.2839 82.4102 20.6484C82.1914 20.9948 81.9909 21.3958 81.8086 21.8516C81.6445 22.3073 81.526 22.7812 81.4531 23.2734C81.3802 23.7656 81.362 24.2943 81.3984 24.8594C81.4531 25.4245 81.5716 25.9622 81.7539 26.4727C81.9362 26.9648 82.1914 27.3932 82.5195 27.7578C82.8659 28.1042 83.3034 28.3047 83.832 28.3594ZM91.4883 17.2578C92.0716 17.1667 92.5456 17.0938 92.9102 17.0391C93.293 16.9661 93.6029 16.9115 93.8398 16.875C94.1133 16.8203 94.3229 16.7747 94.4688 16.7383C94.6146 16.7018 94.8242 16.6471 95.0977 16.5742C95.3346 16.5013 95.6445 16.4193 96.0273 16.3281C96.4102 16.2188 96.8932 16.0729 97.4766 15.8906C97.3307 16.0729 97.2122 16.237 97.1211 16.3828C97.0482 16.5104 96.9753 16.6198 96.9023 16.7109C96.8294 16.8203 96.7656 16.9206 96.7109 17.0117C96.6562 17.1029 96.6016 17.2396 96.5469 17.4219C96.5104 17.5677 96.4648 17.7773 96.4102 18.0508C96.3555 18.306 96.3099 18.6432 96.2734 19.0625C97.2578 18.4427 98.1602 17.9779 98.9805 17.668C99.819 17.3581 100.548 17.1393 101.168 17.0117C101.897 16.8659 102.553 16.8112 103.137 16.8477C103.866 16.9023 104.54 17.0664 105.16 17.3398C105.798 17.5951 106.372 17.9049 106.883 18.2695C107.393 18.6341 107.84 19.0352 108.223 19.4727C108.605 19.9102 108.906 20.3477 109.125 20.7852C109.271 21.0768 109.362 21.4961 109.398 22.043C109.453 22.5898 109.398 23.1732 109.234 23.793C109.07 24.4128 108.779 25.0234 108.359 25.625C107.958 26.2083 107.384 26.6732 106.637 27.0195C105.342 27.6029 104.057 27.931 102.781 28.0039C102.234 28.0404 101.669 28.0221 101.086 27.9492C100.521 27.8763 99.9466 27.7214 99.3633 27.4844C98.7982 27.2474 98.2513 26.9102 97.7227 26.4727C97.194 26.0169 96.7109 25.4336 96.2734 24.7227C96.1276 25.6523 96.0182 26.4635 95.9453 27.1562C95.8906 27.8307 95.8542 28.3958 95.8359 28.8516C95.8177 29.3802 95.8177 29.8268 95.8359 30.1914C95.8724 30.556 95.9453 30.9479 96.0547 31.3672C96.1458 31.7318 96.2734 32.151 96.4375 32.625C96.6198 33.1172 96.8477 33.6276 97.1211 34.1562C97.0117 34.1198 96.8568 34.0924 96.6562 34.0742C96.474 34.0742 96.2826 34.0924 96.082 34.1289C95.8633 34.1654 95.6172 34.2018 95.3438 34.2383C95.0885 34.293 94.806 34.3568 94.4961 34.4297C94.2409 34.4844 93.9401 34.5482 93.5938 34.6211C93.2656 34.7122 92.9284 34.8125 92.582 34.9219C92.7826 34.6849 92.9375 34.4115 93.0469 34.1016C93.1745 33.8099 93.2747 33.5365 93.3477 33.2812C93.4206 32.9714 93.4844 32.6615 93.5391 32.3516C93.5573 32.0781 93.5846 31.5586 93.6211 30.793C93.6758 30.0456 93.7214 29.1797 93.7578 28.1953C93.7943 27.1927 93.8216 26.1445 93.8398 25.0508C93.8763 23.957 93.8945 22.9453 93.8945 22.0156C93.9128 21.0677 93.9128 20.2656 93.8945 19.6094C93.8763 18.9531 93.8398 18.5703 93.7852 18.4609C93.7122 18.3333 93.5755 18.1966 93.375 18.0508C93.2109 17.9232 92.974 17.7956 92.6641 17.668C92.3724 17.5404 91.9805 17.4036 91.4883 17.2578ZM97.9961 22.2344C97.8685 22.6536 97.8411 23.0638 97.9141 23.4648C97.987 23.8659 98.1693 24.2396 98.4609 24.5859C98.7708 24.9323 99.1992 25.2422 99.7461 25.5156C100.311 25.7708 101.013 25.9622 101.852 26.0898C102.69 26.2174 103.328 26.1992 103.766 26.0352C104.203 25.8711 104.522 25.6159 104.723 25.2695C104.941 24.9049 105.087 24.4857 105.16 24.0117C105.233 23.5195 105.324 23.0091 105.434 22.4805C105.543 21.9701 105.525 21.4505 105.379 20.9219C105.233 20.375 105.023 19.8828 104.75 19.4453C104.495 19.0078 104.203 18.6523 103.875 18.3789C103.565 18.0872 103.292 17.9414 103.055 17.9414C102.49 17.9414 101.934 18.0872 101.387 18.3789C100.84 18.6706 100.339 19.0352 99.8828 19.4727C99.4271 19.9102 99.026 20.3841 98.6797 20.8945C98.3516 21.3867 98.1237 21.8333 97.9961 22.2344ZM122.578 14.3867C122.414 14.7878 122.268 15.1523 122.141 15.4805C122.031 15.8086 121.931 16.1003 121.84 16.3555C121.749 16.6471 121.667 16.9023 121.594 17.1211C121.521 17.3763 121.439 17.668 121.348 17.9961C121.257 18.2878 121.138 18.6523 120.992 19.0898C120.865 19.5091 120.71 20.0104 120.527 20.5938C120.382 19.7188 120.117 19.026 119.734 18.5156C119.352 17.987 118.96 17.5768 118.559 17.2852C118.085 16.957 117.574 16.7201 117.027 16.5742C116.043 16.4102 115.332 16.4284 114.895 16.6289C114.457 16.8294 114.165 17.0846 114.02 17.3945C113.947 17.5221 113.865 17.6862 113.773 17.8867C113.701 18.069 113.637 18.2604 113.582 18.4609C113.546 18.6615 113.536 18.862 113.555 19.0625C113.573 19.263 113.655 19.4271 113.801 19.5547C113.892 19.6458 114.129 19.7734 114.512 19.9375C114.895 20.0833 115.35 20.2565 115.879 20.457C116.426 20.6393 117 20.8398 117.602 21.0586C118.221 21.2773 118.805 21.4961 119.352 21.7148C119.898 21.9336 120.372 22.1523 120.773 22.3711C121.174 22.5898 121.439 22.7904 121.566 22.9727C121.676 23.1549 121.794 23.401 121.922 23.7109C122.068 24.0026 122.168 24.3307 122.223 24.6953C122.296 25.0417 122.314 25.4062 122.277 25.7891C122.259 26.1536 122.159 26.5182 121.977 26.8828C121.794 27.2474 121.503 27.5846 121.102 27.8945C120.719 28.2044 120.199 28.4596 119.543 28.6602C118.777 28.8971 118.039 28.9609 117.328 28.8516C116.617 28.7422 115.961 28.5781 115.359 28.3594C114.776 28.1406 114.266 27.931 113.828 27.7305C113.391 27.5117 113.081 27.4206 112.898 27.457C112.698 27.4935 112.47 27.5938 112.215 27.7578C111.96 27.9219 111.714 28.0951 111.477 28.2773C111.258 28.4414 111.066 28.5964 110.902 28.7422C110.738 28.8698 110.656 28.9154 110.656 28.8789C110.656 28.8424 110.684 28.7331 110.738 28.5508C110.811 28.3685 110.884 28.1497 110.957 27.8945C111.048 27.6211 111.13 27.3294 111.203 27.0195C111.294 26.6914 111.358 26.3815 111.395 26.0898C111.431 25.8529 111.477 25.5612 111.531 25.2148C111.568 24.9049 111.613 24.5312 111.668 24.0938C111.741 23.638 111.823 23.0911 111.914 22.4531C112.005 22.9271 112.133 23.3372 112.297 23.6836C112.479 24.0299 112.652 24.3307 112.816 24.5859C113.017 24.8776 113.208 25.1237 113.391 25.3242C113.664 25.5794 113.983 25.8164 114.348 26.0352C114.73 26.2539 115.113 26.4453 115.496 26.6094C115.879 26.7552 116.243 26.8464 116.59 26.8828C116.936 26.9193 117.228 26.8828 117.465 26.7734C117.702 26.6641 117.902 26.4635 118.066 26.1719C118.249 25.8802 118.376 25.5612 118.449 25.2148C118.522 24.8685 118.549 24.5404 118.531 24.2305C118.513 23.9023 118.431 23.638 118.285 23.4375C118.176 23.3099 117.921 23.1458 117.52 22.9453C117.137 22.7448 116.672 22.526 116.125 22.2891C115.596 22.0521 115.031 21.806 114.43 21.5508C113.846 21.2956 113.29 21.0404 112.762 20.7852C112.251 20.5117 111.823 20.2565 111.477 20.0195C111.148 19.7643 110.966 19.5365 110.93 19.3359C110.893 19.0443 110.866 18.7253 110.848 18.3789C110.829 18.0143 110.848 17.6589 110.902 17.3125C110.975 16.9479 111.103 16.6016 111.285 16.2734C111.486 15.9453 111.777 15.6719 112.16 15.4531C112.415 15.3073 112.753 15.1979 113.172 15.125C113.591 15.0521 114.056 15.0156 114.566 15.0156C115.077 14.9974 115.605 15.0156 116.152 15.0703C116.699 15.1068 117.219 15.1615 117.711 15.2344C118.221 15.2891 118.677 15.362 119.078 15.4531C119.497 15.5443 119.816 15.6263 120.035 15.6992C120.29 15.7904 120.564 15.7995 120.855 15.7266C121.111 15.6719 121.384 15.5534 121.676 15.3711C121.967 15.1888 122.268 14.8607 122.578 14.3867ZM122.168 16.0273C122.533 16.082 122.861 16.1276 123.152 16.1641C123.426 16.1823 123.672 16.2005 123.891 16.2188C124.128 16.237 124.355 16.2461 124.574 16.2461C124.775 16.2461 125.03 16.237 125.34 16.2188C125.595 16.2005 125.923 16.1823 126.324 16.1641C126.743 16.1276 127.236 16.082 127.801 16.0273C127.764 16.1003 127.691 16.3281 127.582 16.7109C127.473 17.0755 127.363 17.5312 127.254 18.0781C127.145 18.6068 127.044 19.1992 126.953 19.8555C126.88 20.4935 126.844 21.1315 126.844 21.7695C126.862 22.3893 126.944 22.9818 127.09 23.5469C127.236 24.0938 127.473 24.5404 127.801 24.8867C128.493 25.5977 129.104 26.026 129.633 26.1719C130.18 26.3177 130.654 26.2995 131.055 26.1172C131.456 25.9349 131.784 25.6615 132.039 25.2969C132.294 24.9323 132.477 24.5951 132.586 24.2852C132.859 23.4466 133.023 22.5625 133.078 21.6328C133.115 20.8307 133.051 19.9375 132.887 18.9531C132.723 17.9688 132.331 16.9661 131.711 15.9453C132.185 15.9818 132.595 16.0091 132.941 16.0273C133.288 16.0456 133.589 16.0638 133.844 16.082C134.135 16.1003 134.391 16.1185 134.609 16.1367C134.81 16.1549 135.047 16.1549 135.32 16.1367C135.557 16.1367 135.84 16.1276 136.168 16.1094C136.514 16.0729 136.897 16.0365 137.316 16C137.389 17.7865 137.453 19.3815 137.508 20.7852C137.562 22.1706 137.599 23.401 137.617 24.4766C137.654 25.5339 137.672 26.4544 137.672 27.2383C137.672 28.0039 137.672 28.651 137.672 29.1797C137.654 30.4375 137.599 31.2669 137.508 31.668C137.362 32.2331 137.098 32.7982 136.715 33.3633C136.35 33.9284 135.885 34.4297 135.32 34.8672C134.755 35.3229 134.099 35.6693 133.352 35.9062C132.622 36.1615 131.82 36.2526 130.945 36.1797C130.089 36.1068 129.405 35.9883 128.895 35.8242C128.402 35.6784 128.01 35.5052 127.719 35.3047C127.445 35.1042 127.245 34.8945 127.117 34.6758C127.008 34.457 126.926 34.2292 126.871 33.9922C126.816 33.7734 126.762 33.5638 126.707 33.3633C126.652 33.1628 126.543 32.9896 126.379 32.8438C126.178 32.6797 125.969 32.5156 125.75 32.3516C125.549 32.2057 125.331 32.0599 125.094 31.9141C124.875 31.7682 124.656 31.6497 124.438 31.5586L130.262 31.2305C130.098 31.4492 129.979 31.6497 129.906 31.832C129.833 32.0143 129.788 32.1693 129.77 32.2969C129.751 32.4609 129.76 32.5977 129.797 32.707C129.87 32.9258 129.997 33.1628 130.18 33.418C130.38 33.6914 130.635 33.901 130.945 34.0469C131.255 34.2109 131.62 34.2656 132.039 34.2109C132.477 34.1562 132.969 33.9284 133.516 33.5273C133.971 33.181 134.354 32.625 134.664 31.8594C134.919 31.2031 135.12 30.2826 135.266 29.0977C135.411 27.9128 135.384 26.3542 135.184 24.4219C134.855 25.5521 134.409 26.418 133.844 27.0195C133.279 27.6211 132.714 28.0586 132.148 28.332C131.492 28.6602 130.809 28.8333 130.098 28.8516C129.15 28.8151 128.339 28.6966 127.664 28.4961C126.99 28.2773 126.434 27.9857 125.996 27.6211C125.559 27.2565 125.212 26.8281 124.957 26.3359C124.72 25.8255 124.547 25.2604 124.438 24.6406C124.328 24.0208 124.273 23.401 124.273 22.7812C124.273 22.1432 124.273 21.5508 124.273 21.0039C124.292 20.457 124.301 19.9648 124.301 19.5273C124.301 19.0716 124.255 18.707 124.164 18.4336C124.055 18.1602 123.909 17.8867 123.727 17.6133C123.581 17.3763 123.38 17.1211 123.125 16.8477C122.852 16.556 122.533 16.2826 122.168 16.0273Z" fill="white"/>
</svg>
